<?xml version="1.0" encoding="utf-8"?>
<!-- Generator: Adobe Illustrator 23.0.1, SVG Export Plug-In . SVG Version: 6.00 Build 0)  -->
<svg version="1.1" id="Livello_1" xmlns="http://www.w3.org/2000/svg" xmlns:xlink="http://www.w3.org/1999/xlink" x="0px" y="0px"
	 viewBox="0 0 1000 1000" style="enable-background:new 0 0 1000 1000;" xml:space="preserve">
<style type="text/css">
	.st0{fill:#263238;}
	.st1{fill:#80D8FF;}
	.st2{fill:#455A64;}
	.st3{fill:#00B0FF;}
	.st4{fill:#CFD8DC;}
	.st5{fill:#E3F2FD;}
	.st6{fill:#2962FF;}
	.st7{fill:#FFFFFF;}
</style>
<g id="XMLID_1_">
	<g>
		<path class="st0" d="M952.2,540.1c0,39.1-5.4,76.9-15.5,113l-0.2,0c-13.8,7.8-32.2,16.6-54.3,22.3c4.1-55.3,2.7-188.9-93.1-304.6
			C673,230.6,506,222.2,466,220.2c-114.2-5.7-202.2,31.7-244.7,53.3c-8.8-10.6-47.3,3.9-72.1,25.1c-14.9,12.6-34.6,35.9-28.2,47.1
			c-9,8.8-18.6,19.2-28.2,31.4c-8.7,11-15.9,21.6-22,31.4l-0.6-0.2C117,267.6,236.8,158.3,387,121.1c36.3-9,74.3-13.8,113.5-13.8
			c53.9,0,105.6,9,153.5,25.6C827.9,193.1,952.2,352.7,952.2,540.1z"/>
		<path class="st0" d="M936.5,653.1l0.2,0c-0.4,1.5-0.8,2.9-1.3,4.4c-5.2,5.8-25.6,27.2-55.3,39c0.6-4.4,1.4-11.6,2.1-21.2
			C904.3,669.7,922.7,660.9,936.5,653.1z"/>
		<path class="st1" d="M880.1,696.5c29.7-11.9,50.1-33.2,55.3-39c-5.6,19-12.5,37.5-20.6,55.3c-53.2,60.3-102.3,80-141.4,84.6
			c-75,8.8-105.7-39.1-257.2-94.1c-72.7-26.4-130.5-47.4-203.9-47.1c-97.1,0.4-174.1,38-219.6,65.9l-1.8,0.8
			c-27-55.5-42.1-117.5-42.1-182.8c0-1,0-2.1,0-3.1c328-100.4,481.9-54.3,561.4,12.5c36.4,30.6,86.6,90.2,154.3,117.5
			c0.7,5,2.3,9.9,5.6,11.1c10,8.4,28.1,21,53.3,25.1C844.6,706.6,863.7,703,880.1,696.5z"/>
		<path class="st2" d="M789,370.8c95.8,115.7,97.2,249.2,93.1,304.6c-13.1,3.4-27.5,5.6-42.9,6c-20.4,0.4-39.6-2.7-57.7-8.2
			c6.1-5.6,11.9-13.9,13.7-16.9c27.7-44.4-29.9-161.1-116.1-232.1c-50.4-41.6-95.3-52.8-185.1-75.3c-15.4-3.9-39.8-9-50.2,3.1
			c-8.4,9.8-3.7,26.3-3.1,28.2c4.5,14.8,15.8,20.6,43.9,40.8c23,16.5,34.1,26,39.5,31.8c-46.7-17.3-108.4-31.3-174.9-21.8
			c-29.5-21.3-34.7-35.6-68.5-47.6c-12-4.2-32.8-11.6-59.6-9.4c-55.6,4.6-94.4,47.5-122.3,78.4c-11.3,12.5-19.7,23.7-25.1,31.4
			c-8.6-1.9-14.7-7.6-18.8-12.5c0.1-1.7,0.3-3.6,0.4-5.6c3.5-19.6,8.5-38.7,14.7-57.3l0.6,0.2c6-9.8,13.3-20.4,22-31.4
			c9.7-12.2,19.3-22.6,28.2-31.4c4.2,7.3,18.1,6.6,25.1,6.3c26.3-1.3,44.3-19.1,50.2-25.1c14.9-15.2,33.1-43.7,25.1-53.3
			c42.4-21.6,130.5-59.1,244.7-53.3C506,222.2,673,230.6,789,370.8z"/>
		<path class="st2" d="M882.2,675.3c-0.7,9.6-1.5,16.8-2.1,21.2c-16.3,6.5-35.5,10.1-56.5,6.7c-25.2-4.1-43.3-16.7-53.3-25.1
			c3.2,1.1,7.3-1.3,11.4-5.1c18,5.5,37.2,8.6,57.7,8.2C854.7,681,869.1,678.7,882.2,675.3z"/>
		<path class="st3" d="M773.4,797.4c39.1-4.6,88.2-24.3,141.4-84.6c-26.3,57.9-65.4,109.2-113.9,150.6c-25,5.7-62.9,12.4-109.1,12.4
			c-115.3-0.1-164.3-42-250.9-43.9c-46.3-1-112.7,9.2-194.5,62.7l-1.6,2.4c-66.2-43.6-119.6-103.7-153.9-174.1l1.8-0.8
			c45.5-27.8,122.4-65.4,219.6-65.9c73.4-0.3,131.2,20.7,203.9,47.1C667.7,758.3,698.4,806.2,773.4,797.4z"/>
		<path class="st4" d="M679.3,424.1c86.2,71,143.7,187.8,116.1,232.1c-1.9,3-7.7,11.3-13.7,16.9c-5.8-1.8-11.4-3.8-17-6.1
			c-0.7-4.6-0.6-9.3-0.6-10.9c-0.4-38.7-71.2-112.2-156.8-163.1c-10.6-6.3-40.7-24.7-82.8-40.3c-5.4-5.8-16.5-15.3-39.5-31.8
			c-28.1-20.2-39.5-26-43.9-40.8c-0.6-1.9-5.3-18.4,3.1-28.2c10.4-12.1,34.8-7,50.2-3.1C583.9,371.3,628.8,382.5,679.3,424.1z"/>
		<path class="st4" d="M781.6,673.1c-4,3.7-8.2,6.2-11.4,5.1c-3.4-1.2-5-6.1-5.6-11.1C770.1,669.3,775.8,671.4,781.6,673.1z"/>
		<path class="st5" d="M764,656.2c0,1.6-0.1,6.2,0.6,10.9c-67.7-27.3-118-86.9-154.3-117.5c-79.5-66.8-233.5-113-561.4-12.5
			c0.2-24.3,2.4-48.2,6.6-71.5c-0.2,2-0.3,3.9-0.4,5.6c4.1,4.9,10.3,10.6,18.8,12.5c10.5,2.4,19.7-2.1,22-3.1
			c1.6-0.7,80.5-16.2,238.4-47.1c5.1-1,10.1-1.9,15.2-2.6c3.9,2.8,8.2,5.8,13.1,8.8c10.4,6.5,68.3,42.1,134.9,34.5
			c8.7-1,29.3-3.5,31.4-12.5c0.3-1.6,0.2-3.8-4.4-9c42.2,15.7,72.2,34,82.8,40.3C692.7,544,763.5,617.5,764,656.2z"/>
		<path class="st0" d="M745.1,41.4c1.2,4.8-7,10.8-9.4,12.5c-13,9.6-38.9,34.4-81.6,78.4l-0.2,0.5c-47.9-16.6-99.6-25.6-153.5-25.6
			c-39.2,0-77.3,4.8-113.5,13.8l-1.9-7.5c11-2.5,23.4-6.1,40.1-12.5c47.4-18.2,62.2-33.4,119.2-53.3c37.2-13,63.1-17.8,69-18.8
			c0,0,39.5-7.1,119.2,6.3C736.2,35.7,744,37.1,745.1,41.4z"/>
		<path class="st6" d="M691.8,875.8c46.1,0,84.1-6.6,109.1-12.4C721,931.6,615.8,973,500.5,973c-94.9,0-183-28-255.7-76l1.6-2.4
			c81.8-53.6,148.2-63.8,194.5-62.7C527.5,833.8,576.5,875.7,691.8,875.8z"/>
		<path class="st2" d="M524.3,452.8c4.6,5.1,4.8,7.4,4.4,9c-2,9-22.7,11.6-31.4,12.5c-66.5,7.6-124.5-28-134.9-34.5
			c-4.9-3.1-9.2-6-13.1-8.8C415.9,421.5,477.5,435.4,524.3,452.8z"/>
		<path class="st0" d="M385,113.5l1.9,7.5C236.8,158.3,117,267.6,70.1,408.2C63.9,426.8,59,446,55.5,465.6
			c3.7-46.1,19.9-157.7,106.2-242.2c69.9-68.4,162.3-96.1,166.2-97.2C352.3,119.1,366.7,117.7,385,113.5z"/>
		<path class="st4" d="M349.4,430.9c-5,0.7-10.1,1.6-15.2,2.6c-157.9,30.9-236.8,46.3-238.4,47.1c-2.2,1-11.4,5.5-22,3.1
			c5.4-7.7,13.8-18.9,25.1-31.4c28-30.9,66.7-73.8,122.3-78.4c26.8-2.2,47.6,5.2,59.6,9.4C314.7,395.3,319.9,409.7,349.4,430.9z"/>
		<path class="st7" d="M221.3,273.5c8,9.7-10.2,38.1-25.1,53.3c-5.9,6-23.9,23.8-50.2,25.1c-7,0.3-20.9,1-25.1-6.3
			c-6.3-11.1,13.4-34.4,28.2-47.1C174,277.4,212.5,262.9,221.3,273.5z"/>
	</g>
	<g>
	</g>
</g>
</svg>
